<svg width="107" height="29" viewBox="0 0 107 29" fill="none" xmlns="http://www.w3.org/2000/svg">
<g clip-path="url(#clip0_11_1652)">
<path d="M65.1106 9.17256C64.037 8.61301 63.0312 8.03149 61.9767 7.5525C60.4009 6.83621 58.7324 6.45537 56.9887 6.48466C56.2715 6.49638 55.5749 6.6165 54.9755 7.06326C54.1435 7.68433 54.0875 9.01729 54.9652 9.57538C55.6132 9.98699 56.3599 10.2858 57.1021 10.4967C58.7118 10.9567 60.3553 11.3009 61.9708 11.7447C63.7498 12.234 65.4582 12.8961 66.9544 14.0093C68.7187 15.3218 69.6171 17.0912 69.7246 19.2606C69.8453 21.7215 69.2371 23.9494 67.4934 25.7789C66.0252 27.3199 64.1813 28.2339 62.1196 28.6031C56.0698 29.6899 50.503 28.5826 45.5857 24.7741C45.4222 24.6467 45.269 24.506 45.0894 24.3537C46.5429 22.6282 47.9935 20.9056 49.4441 19.1844C49.9772 19.5506 50.4706 19.911 50.9845 20.2391C53.2186 21.6658 55.6559 22.4656 58.3215 22.5286C59.0844 22.5461 59.8413 22.5037 60.5659 22.2297C61.448 21.8943 61.8133 21.3494 61.7926 20.4193C61.7794 19.807 61.4245 19.3778 60.9208 19.1654C59.9562 18.7596 58.9636 18.4066 57.9592 18.1107C56.1066 17.5658 54.2245 17.1176 52.3777 16.5522C51.1333 16.1699 49.9861 15.5517 48.9625 14.7315C47.2498 13.3589 46.5046 11.5338 46.4266 9.39521C46.2778 5.29672 48.6223 2.05366 52.7017 0.70019C54.8135 1.76673e-05 56.9828 -0.0907996 59.1727 0.0644686C61.6925 0.243174 64.1151 0.814443 66.3447 2.02583C67.1798 2.47991 67.9529 3.04679 68.7555 3.56093C68.9116 3.66054 68.9735 3.75575 68.841 3.94178C67.5833 5.69514 66.3344 7.45436 65.1106 9.17256Z" fill="white"/>
<path d="M0 0.499512H7.80233V21.6702H21.4468V28.5122H0V0.499512Z" fill="white"/>
<path d="M35.5479 28.5196H27.6528V28.0948C27.6528 24.8415 27.6543 21.5867 27.6469 18.3334C27.6469 18.1605 27.6086 17.9643 27.5217 17.8192C24.2524 12.4493 20.9741 7.08523 17.6959 1.71968C17.4559 1.32712 17.2173 0.93602 16.939 0.480468C17.1083 0.480468 17.2114 0.480468 17.316 0.480468C20.0625 0.480468 22.8091 0.484863 25.5557 0.473145C25.8193 0.473145 25.9371 0.572751 26.0608 0.783681C29.3714 6.42753 32.4361 12.2018 35.3049 18.0785C35.4478 18.3715 35.5361 18.7216 35.5376 19.0453C35.5553 22.0437 35.5479 25.0407 35.5479 28.0391V28.5196Z" fill="white"/>
<path d="M73.6611 0.490723H81.5003V28.5093H73.6611V0.490723Z" fill="white"/>
<path d="M38.2077 13.605C36.3197 12.0846 34.4671 10.5919 32.5835 9.07588C32.8839 8.54709 33.1814 8.02123 33.4804 7.49829C34.7675 5.24837 36.0546 2.99698 37.3521 0.751451C37.4228 0.629873 37.5951 0.490717 37.7203 0.489252C40.5508 0.474604 43.3813 0.477534 46.281 0.477534C43.583 4.86459 40.9086 9.2121 38.2077 13.6036V13.605Z" fill="white"/>
<path fill-rule="evenodd" clip-rule="evenodd" d="M86.1646 21.6599L93.1127 14.749L86.1646 7.83815L93.1127 0.927246L107 14.749L93.1127 28.5621L86.1646 21.6599Z" fill="url(#paint0_linear_11_1652)"/>
</g>
<defs>
<linearGradient id="paint0_linear_11_1652" x1="86.1631" y1="21.657" x2="99.9832" y2="7.76236" gradientUnits="userSpaceOnUse">
<stop stop-color="#9800F1"/>
<stop offset="1" stop-color="#00E5DD"/>
</linearGradient>
<clipPath id="clip0_11_1652">
<rect width="107" height="29" fill="white"/>
</clipPath>
</defs>
</svg>
